<?xml version="1.0" encoding="UTF-8"?>
<!DOCTYPE svg PUBLIC "-//W3C//DTD SVG 1.1//EN" "http://www.w3.org/Graphics/SVG/1.1/DTD/svg11.dtd">
<!-- Creator: CorelDRAW -->
<svg xmlns="http://www.w3.org/2000/svg" xml:space="preserve" width="100px" height="100px" version="1.1" style="shape-rendering:geometricPrecision; text-rendering:geometricPrecision; image-rendering:optimizeQuality; fill-rule:evenodd; clip-rule:evenodd"
viewBox="0 0 100 100"
 xmlns:xlink="http://www.w3.org/1999/xlink"
 xmlns:xodm="http://www.corel.com/coreldraw/odm/2003">
 <defs>
  <style type="text/css">
   <![CDATA[
    .fil0 {fill:black}
   ]]>
  </style>
 </defs>
 <g id="Слой_x0020_1">
  <metadata id="CorelCorpID_0Corel-Layer"/>
  <path class="fil0" d="M-652.59 286.43l13.03 0c3.02,0 5.48,2.46 5.48,5.48l0 13.03c0,3.02 -2.46,5.49 -5.48,5.49l-13.03 0c-3.02,0 -5.49,-2.47 -5.49,-5.49l0 -13.03c0,-3.02 2.47,-5.48 5.49,-5.48zm6.76 4.38c4.11,0 7.43,3.33 7.43,7.43 0,4.11 -3.32,7.43 -7.43,7.43 -1.16,0 -2.27,-0.27 -3.25,-0.74 -0.31,-0.16 -0.16,-0.07 -0.45,-0.26l-4 1.36c-0.18,0.06 -0.28,-0.15 -0.2,-0.33l1.49 -3.7c-0.65,-1.1 -1.02,-2.39 -1.02,-3.76 0,-4.1 3.33,-7.43 7.43,-7.43zm-4.03 4.66c0,-0.83 0.75,-1.37 1.44,-1.37 0.59,0 0.63,0.06 1.06,0.78 0.27,0.46 0.48,0.57 0.48,1.19 0,0.95 -1.14,1.07 -0.61,2.11l0.24 0.4c0.42,0.63 1.35,1.51 2.06,1.62 0.59,0.1 0.85,-0.75 1.82,-0.75 0.41,0 0.92,0.38 1.28,0.62 0.09,0.07 0.16,0.1 0.25,0.16 0.35,0.25 0.31,0.4 0.31,0.76 0,0.67 -0.59,1.44 -1.24,1.44 -1.56,0 -2.78,-0.62 -3.89,-1.46l-0.94 -0.81 -0.8 -0.93c-0.33,-0.43 -0.41,-0.56 -0.69,-1.05 -0.38,-0.66 -0.77,-1.67 -0.77,-2.71z"/>
  <path class="fil0" d="M-446.25 286.43l13.03 0c3.02,0 5.49,2.46 5.49,5.48l0 13.03c0,3.02 -2.47,5.49 -5.49,5.49l-13.03 0c-3.01,0 -5.48,-2.47 -5.48,-5.49l0 -13.03c0,-3.02 2.47,-5.48 5.48,-5.48zm10.47 17.63c-0.83,0 -1.11,-0.3 -1.65,-0.66l-3 -2.02c-0.4,-0.27 -0.81,-0.42 -0.81,-1.02 0,-0.48 1.67,-1.85 2.11,-2.3l1.66 -1.65c0.22,-0.23 0.53,-0.38 0.53,-0.68 0,-0.49 -0.66,0.05 -0.79,0.14 -0.16,0.12 -0.28,0.18 -0.43,0.29 -1.2,0.9 -3.34,2.24 -4.62,3.1 -0.96,0.65 -2.04,0.22 -3.04,-0.1 -0.37,-0.12 -1.37,-0.32 -1.37,-0.73 0,-0.5 0.87,-0.8 1.28,-0.97 0.56,-0.24 1.07,-0.46 1.62,-0.7 2.38,-1.02 5.66,-2.43 8.08,-3.39 1.06,-0.43 2.77,-1.26 2.59,0.49 -0.06,0.56 -0.12,1.02 -0.2,1.56 -0.21,1.4 -0.97,7.21 -1.51,8.21 -0.06,0.12 -0.29,0.43 -0.45,0.43z"/>
  <path class="fil0" d="M22.85 0l54.29 0c12.57,0 22.86,10.29 22.86,22.86l0 54.28c0,12.57 -10.29,22.86 -22.86,22.86l-54.29 0c-12.57,0 -22.85,-10.29 -22.85,-22.86l0 -54.28c0,-12.57 10.28,-22.86 22.85,-22.86zm27.15 26.32c13.3,0 24.08,10.78 24.08,24.08 0,13.3 -10.78,24.08 -24.08,24.08 -13.3,0 -24.08,-10.78 -24.08,-24.08 0,-13.3 10.78,-24.08 24.08,-24.08zm0 4.56c10.78,0 19.52,8.74 19.52,19.52 0,10.78 -8.74,19.52 -19.52,19.52 -10.78,0 -19.52,-8.74 -19.52,-19.52 0,-10.78 8.74,-19.52 19.52,-19.52zm25.92 -11.38c2.54,0 4.6,2.06 4.6,4.6 0,2.54 -2.06,4.6 -4.6,4.6 -2.54,0 -4.6,-2.06 -4.6,-4.6 0,-2.54 2.06,-4.6 4.6,-4.6z"/>
 </g>
</svg>
