<?xml version="1.0" encoding="UTF-8"?>
<!DOCTYPE svg PUBLIC "-//W3C//DTD SVG 1.1//EN" "http://www.w3.org/Graphics/SVG/1.1/DTD/svg11.dtd">
<!-- Creator: CorelDRAW -->
<svg xmlns="http://www.w3.org/2000/svg" xml:space="preserve" width="100px" height="100px" version="1.1" style="shape-rendering:geometricPrecision; text-rendering:geometricPrecision; image-rendering:optimizeQuality; fill-rule:evenodd; clip-rule:evenodd"
viewBox="0 0 100 100"
 xmlns:xlink="http://www.w3.org/1999/xlink"
 xmlns:xodm="http://www.corel.com/coreldraw/odm/2003">
 <defs>
  <style type="text/css">
   <![CDATA[
    .fil0 {fill:#21DED8}
   ]]>
  </style>
 </defs>
 <g id="Слой_x0020_1">
  <metadata id="CorelCorpID_0Corel-Layer"/>
  <path class="fil0" d="M22.86 0l54.28 0c12.57,0 22.86,10.29 22.86,22.86l0 54.28c0,12.57 -10.29,22.86 -22.86,22.86l-54.28 0c-12.57,0 -22.86,-10.29 -22.86,-22.86l0 -54.28c0,-12.57 10.29,-22.86 22.86,-22.86zm27.14 26.32c13.3,0 24.08,10.78 24.08,24.08 0,13.3 -10.78,24.08 -24.08,24.08 -13.3,0 -24.08,-10.78 -24.08,-24.08 0,-13.3 10.78,-24.08 24.08,-24.08zm0 4.56c10.78,0 19.52,8.74 19.52,19.52 0,10.78 -8.74,19.52 -19.52,19.52 -10.78,0 -19.52,-8.74 -19.52,-19.52 0,-10.78 8.74,-19.52 19.52,-19.52zm25.92 -11.38c2.54,0 4.61,2.06 4.61,4.6 0,2.54 -2.07,4.6 -4.61,4.6 -2.54,0 -4.6,-2.06 -4.6,-4.6 0,-2.54 2.06,-4.6 4.6,-4.6z"/>
 </g>
</svg>
