<?xml version="1.0" encoding="UTF-8"?>
<!DOCTYPE svg PUBLIC "-//W3C//DTD SVG 1.1//EN" "http://www.w3.org/Graphics/SVG/1.1/DTD/svg11.dtd">
<!-- Creator: CorelDRAW -->
<svg xmlns="http://www.w3.org/2000/svg" xml:space="preserve" width="100px" height="100px" version="1.1" style="shape-rendering:geometricPrecision; text-rendering:geometricPrecision; image-rendering:optimizeQuality; fill-rule:evenodd; clip-rule:evenodd"
viewBox="0 0 100 100"
 xmlns:xlink="http://www.w3.org/1999/xlink"
 xmlns:xodm="http://www.corel.com/coreldraw/odm/2003">
 <defs>
  <style type="text/css">
   <![CDATA[
    .fil0 {fill:#21DED8}
   ]]>
  </style>
 </defs>
 <g id="Слой_x0020_1">
  <metadata id="CorelCorpID_0Corel-Layer"/>
  <path class="fil0" d="M19.84 27.88c0,-6.26 5.64,-10.31 10.81,-10.31 4.42,0 4.75,0.42 7.96,5.87 2.02,3.43 3.6,4.27 3.6,8.96 0,7.13 -8.56,8.01 -4.53,15.85l1.76 3.01c3.15,4.72 10.15,11.36 15.48,12.19 4.43,0.7 6.38,-5.66 13.68,-5.66 3.13,0 6.95,2.86 9.65,4.68 0.7,0.47 1.19,0.7 1.85,1.17 2.65,1.88 2.33,2.99 2.33,5.71 0,5.04 -4.39,10.81 -9.31,10.81 -11.74,0 -20.87,-4.62 -29.26,-10.95l-7 -6.07 -6.07 -7c-2.45,-3.24 -3.05,-4.19 -5.18,-7.89 -2.86,-4.95 -5.77,-12.59 -5.77,-20.37zm3.02 -27.88l54.28 0c12.58,0 22.86,10.29 22.86,22.86l0 54.28c0,12.58 -10.28,22.86 -22.86,22.86l-54.28 0c-12.57,0 -22.86,-10.28 -22.86,-22.86l0 -54.28c0,-12.57 10.29,-22.86 22.86,-22.86z"/>
 </g>
</svg>
