<?xml version="1.0" encoding="UTF-8"?>
<!DOCTYPE svg PUBLIC "-//W3C//DTD SVG 1.1//EN" "http://www.w3.org/Graphics/SVG/1.1/DTD/svg11.dtd">
<!-- Creator: CorelDRAW -->
<svg xmlns="http://www.w3.org/2000/svg" xml:space="preserve" width="100px" height="100px" version="1.1" style="shape-rendering:geometricPrecision; text-rendering:geometricPrecision; image-rendering:optimizeQuality; fill-rule:evenodd; clip-rule:evenodd"
viewBox="0 0 100 100"
 xmlns:xlink="http://www.w3.org/1999/xlink"
 xmlns:xodm="http://www.corel.com/coreldraw/odm/2003">
 <defs>
  <style type="text/css">
   <![CDATA[
    .fil0 {fill:black}
   ]]>
  </style>
 </defs>
 <g id="Слой_x0020_1">
  <metadata id="CorelCorpID_0Corel-Layer"/>
  <path class="fil0" d="M-652.59 286.43l13.03 0c3.02,0 5.48,2.46 5.48,5.48l0 13.03c0,3.02 -2.46,5.49 -5.48,5.49l-13.03 0c-3.02,0 -5.49,-2.47 -5.49,-5.49l0 -13.03c0,-3.02 2.47,-5.48 5.49,-5.48zm6.76 4.38c4.11,0 7.43,3.33 7.43,7.43 0,4.11 -3.32,7.43 -7.43,7.43 -1.16,0 -2.27,-0.27 -3.25,-0.74 -0.31,-0.16 -0.16,-0.07 -0.45,-0.26l-4 1.36c-0.18,0.06 -0.28,-0.15 -0.2,-0.33l1.49 -3.7c-0.65,-1.1 -1.02,-2.39 -1.02,-3.76 0,-4.1 3.33,-7.43 7.43,-7.43zm-4.03 4.66c0,-0.83 0.75,-1.37 1.44,-1.37 0.59,0 0.63,0.06 1.06,0.78 0.27,0.46 0.48,0.57 0.48,1.19 0,0.95 -1.14,1.07 -0.61,2.11l0.24 0.4c0.42,0.63 1.35,1.51 2.06,1.62 0.59,0.1 0.85,-0.75 1.82,-0.75 0.41,0 0.92,0.38 1.28,0.62 0.09,0.07 0.16,0.1 0.25,0.16 0.35,0.25 0.31,0.4 0.31,0.76 0,0.67 -0.59,1.44 -1.24,1.44 -1.56,0 -2.78,-0.62 -3.89,-1.46l-0.94 -0.81 -0.8 -0.93c-0.33,-0.43 -0.41,-0.56 -0.69,-1.05 -0.38,-0.66 -0.77,-1.67 -0.77,-2.71z"/>
  <path class="fil0" d="M22.86 0l54.28 0c12.57,0 22.86,10.29 22.86,22.86l0 54.29c0,12.57 -10.29,22.85 -22.86,22.85l-54.28 0c-12.57,0 -22.86,-10.28 -22.86,-22.85l0 -54.29c0,-12.57 10.29,-22.86 22.86,-22.86zm43.62 73.48c-3.45,0 -4.64,-1.27 -6.9,-2.76l-12.5 -8.42c-1.65,-1.1 -3.35,-1.75 -3.35,-4.22 0,-2.01 6.92,-7.71 8.79,-9.6l6.89 -6.89c0.92,-0.94 2.24,-1.56 2.24,-2.82 0,-2.05 -2.78,0.21 -3.31,0.6 -0.67,0.48 -1.16,0.74 -1.78,1.21 -5.01,3.72 -13.93,9.3 -19.27,12.9 -4,2.71 -8.49,0.91 -12.67,-0.43 -1.55,-0.5 -5.71,-1.31 -5.71,-3.02 0,-2.09 3.64,-3.34 5.34,-4.07 2.34,-1 4.45,-1.88 6.77,-2.88 9.9,-4.28 23.58,-10.14 33.65,-14.16 4.42,-1.76 11.55,-5.25 10.79,2.06 -0.24,2.33 -0.5,4.23 -0.84,6.51 -0.86,5.81 -4.01,30.04 -6.26,34.19 -0.29,0.53 -1.22,1.8 -1.88,1.8z"/>
 </g>
</svg>
