<?xml version="1.0" encoding="UTF-8"?>
<!DOCTYPE svg PUBLIC "-//W3C//DTD SVG 1.1//EN" "http://www.w3.org/Graphics/SVG/1.1/DTD/svg11.dtd">
<!-- Creator: CorelDRAW -->
<svg xmlns="http://www.w3.org/2000/svg" xml:space="preserve" width="100px" height="100px" version="1.1" style="shape-rendering:geometricPrecision; text-rendering:geometricPrecision; image-rendering:optimizeQuality; fill-rule:evenodd; clip-rule:evenodd"
viewBox="0 0 100 100"
 xmlns:xlink="http://www.w3.org/1999/xlink"
 xmlns:xodm="http://www.corel.com/coreldraw/odm/2003">
 <defs>
  <style type="text/css">
   <![CDATA[
    .fil0 {fill:#21DED8}
   ]]>
  </style>
 </defs>
 <g id="Слой_x0020_1">
  <metadata id="CorelCorpID_0Corel-Layer"/>
  <path class="fil0" d="M22.86 0l54.28 0c12.57,0 22.86,10.29 22.86,22.86l0 54.28c0,12.57 -10.29,22.86 -22.86,22.86l-54.28 0c-12.57,0 -22.86,-10.29 -22.86,-22.86l0 -54.28c0,-12.57 10.29,-22.86 22.86,-22.86zm43.62 73.47c-3.45,0 -4.64,-1.26 -6.9,-2.75l-12.5 -8.42c-1.65,-1.1 -3.35,-1.75 -3.35,-4.22 0,-2.01 6.92,-7.71 8.79,-9.6l6.89 -6.89c0.92,-0.94 2.24,-1.56 2.24,-2.82 0,-2.05 -2.78,0.21 -3.31,0.59 -0.67,0.49 -1.16,0.75 -1.78,1.21 -5.01,3.72 -13.93,9.31 -19.27,12.91 -4,2.7 -8.49,0.9 -12.67,-0.43 -1.55,-0.5 -5.71,-1.31 -5.71,-3.02 0,-2.09 3.64,-3.34 5.34,-4.07 2.34,-1 4.45,-1.88 6.77,-2.89 9.9,-4.27 23.58,-10.13 33.65,-14.15 4.42,-1.76 11.55,-5.25 10.79,2.06 -0.24,2.32 -0.5,4.23 -0.84,6.51 -0.86,5.81 -4.01,30.04 -6.26,34.19 -0.29,0.53 -1.22,1.79 -1.88,1.79z"/>
 </g>
</svg>
