<?xml version="1.0" encoding="UTF-8"?>
<!DOCTYPE svg PUBLIC "-//W3C//DTD SVG 1.1//EN" "http://www.w3.org/Graphics/SVG/1.1/DTD/svg11.dtd">
<!-- Creator: CorelDRAW -->
<svg xmlns="http://www.w3.org/2000/svg" xml:space="preserve" width="100px" height="100px" version="1.1" style="shape-rendering:geometricPrecision; text-rendering:geometricPrecision; image-rendering:optimizeQuality; fill-rule:evenodd; clip-rule:evenodd"
viewBox="0 0 100 100"
 xmlns:xlink="http://www.w3.org/1999/xlink"
 xmlns:xodm="http://www.corel.com/coreldraw/odm/2003">
 <defs>
  <style type="text/css">
   <![CDATA[
    .fil0 {fill:black}
   ]]>
  </style>
 </defs>
 <g id="Слой_x0020_1">
  <metadata id="CorelCorpID_0Corel-Layer"/>
  <path class="fil0" d="M22.85 0l54.29 0c12.57,0 22.86,10.29 22.86,22.86l0 54.29c0,12.57 -10.29,22.85 -22.86,22.85l-54.29 0c-12.57,0 -22.85,-10.28 -22.85,-22.85l0 -54.29c0,-12.57 10.28,-22.86 22.85,-22.86zm28.19 18.27c17.1,0 30.96,13.86 30.96,30.96 0,17.1 -13.86,30.97 -30.96,30.97 -4.86,0 -9.46,-1.12 -13.56,-3.12 -1.29,-0.63 -0.68,-0.28 -1.86,-1.08l-16.69 5.69c-0.72,0.24 -1.14,-0.63 -0.83,-1.39l6.23 -15.4c-2.7,-4.59 -4.26,-9.95 -4.26,-15.67 0,-17.1 13.87,-30.96 30.97,-30.96zm-16.8 19.42c0,-3.47 3.12,-5.71 5.99,-5.71 2.45,0 2.63,0.23 4.41,3.25 1.12,1.9 1.99,2.37 1.99,4.97 0,3.95 -4.75,4.43 -2.51,8.78l0.98 1.67c1.75,2.62 5.63,6.29 8.58,6.76 2.46,0.39 3.53,-3.14 7.59,-3.14 1.73,0 3.85,1.59 5.34,2.6 0.39,0.26 0.66,0.38 1.02,0.64 1.47,1.04 1.3,1.66 1.3,3.17 0,2.79 -2.43,5.99 -5.15,5.99 -6.52,0 -11.58,-2.56 -16.23,-6.07l-3.88 -3.36 -3.36 -3.88c-1.36,-1.8 -1.7,-2.33 -2.88,-4.37 -1.58,-2.75 -3.19,-6.99 -3.19,-11.3z"/>
 </g>
</svg>
